<svg xmlns="http://www.w3.org/2000/svg" width="300" height="300" viewBox="0 0 300 300"><path fill="none" stroke="#FFF" stroke-width="7.134" stroke-miterlimit="10" d="M57.522 114.666h139.454c47.447-2.814 62.587 28.403 64.048 77.041 3.613 88.567-66.8 96.325-119.942 96.325-44.855 0-73.664-13.12-100.058-44.123-51.135-70.118 1.144-197.998 8.7-193.896l142.312 148.528"/><path fill="none" stroke="#619BD3" stroke-width="7.134" stroke-miterlimit="10" d="M78.587 152.267h139.45"/><path fill="none" stroke="#ECEFAA" stroke-width="7.134" stroke-miterlimit="10" d="M233.022 189.551H93.568c-96.464 0-63.496-118.219-44.461-136.429 45.81-73.6 217.241-50.267 230.561 60.901 7.295 61.326-12.721 123.054-51.089 152.72C169.9 312.117 65.37 277.612 60.294 261.93l126.778-155.987"/></svg>